<svg xmlns="http://www.w3.org/2000/svg" xmlns:xlink="http://www.w3.org/1999/xlink" id="Capa_1" x="0" y="0" version="1.1" viewBox="0 0 512 512" style="enable-background:new 0 0 512 512" xml:space="preserve"><style type="text/css">.st0{fill:#ffde59}</style><g><path d="M388.4,247.2c-4.9,0-8.8,3.9-8.8,8.8v53c0,68.1-55.4,123.6-123.6,123.6S132.4,377.1,132.4,309v-53 c0-4.9-4-8.8-8.8-8.8s-8.8,3.9-8.8,8.8v53c0,74.9,58.7,136.2,132.4,140.8v44.6H203c-4.9,0-8.8,3.9-8.8,8.8c0,4.9,4,8.8,8.8,8.8H309 c4.9,0,8.8-3.9,8.8-8.8c0-4.9-4-8.8-8.8-8.8h-44.1v-44.6c73.8-4.6,132.4-65.9,132.4-140.8v-53C397.2,251.1,393.3,247.2,388.4,247.2 z" class="st0"/><path d="M256,406.1c53.5,0,97.1-43.6,97.1-97.1V97.1C353.1,43.6,309.5,0,256,0s-97.1,43.6-97.1,97.1V309 C158.9,362.5,202.5,406.1,256,406.1z M176.6,97.1c0-43.8,35.6-79.4,79.4-79.4s79.4,35.6,79.4,79.4V309c0,43.8-35.6,79.4-79.4,79.4 s-79.4-35.6-79.4-79.4V97.1z" class="st0"/></g></svg>